<svg id="visual" viewBox="0 0 2560 1440" width="2560" height="1440" xmlns="http://www.w3.org/2000/svg" xmlns:xlink="http://www.w3.org/1999/xlink" version="1.1"><rect x="0" y="0" width="2560" height="1440" fill="#8f7394"></rect><defs><linearGradient id="grad1_0" x1="43.8%" y1="100%" x2="100%" y2="0%"><stop offset="14.444444444444446%" stop-color="#380036" stop-opacity="1"></stop><stop offset="85.55555555555554%" stop-color="#380036" stop-opacity="1"></stop></linearGradient></defs><defs><linearGradient id="grad1_1" x1="43.8%" y1="100%" x2="100%" y2="0%"><stop offset="14.444444444444446%" stop-color="#380036" stop-opacity="1"></stop><stop offset="85.55555555555554%" stop-color="#441243" stop-opacity="1"></stop></linearGradient></defs><defs><linearGradient id="grad1_2" x1="43.8%" y1="100%" x2="100%" y2="0%"><stop offset="14.444444444444446%" stop-color="#502350" stop-opacity="1"></stop><stop offset="85.55555555555554%" stop-color="#441243" stop-opacity="1"></stop></linearGradient></defs><defs><linearGradient id="grad1_3" x1="43.8%" y1="100%" x2="100%" y2="0%"><stop offset="14.444444444444446%" stop-color="#502350" stop-opacity="1"></stop><stop offset="85.55555555555554%" stop-color="#5c335d" stop-opacity="1"></stop></linearGradient></defs><defs><linearGradient id="grad1_4" x1="43.8%" y1="100%" x2="100%" y2="0%"><stop offset="14.444444444444446%" stop-color="#69436b" stop-opacity="1"></stop><stop offset="85.55555555555554%" stop-color="#5c335d" stop-opacity="1"></stop></linearGradient></defs><defs><linearGradient id="grad1_5" x1="43.8%" y1="100%" x2="100%" y2="0%"><stop offset="14.444444444444446%" stop-color="#69436b" stop-opacity="1"></stop><stop offset="85.55555555555554%" stop-color="#755378" stop-opacity="1"></stop></linearGradient></defs><defs><linearGradient id="grad1_6" x1="43.8%" y1="100%" x2="100%" y2="0%"><stop offset="14.444444444444446%" stop-color="#826386" stop-opacity="1"></stop><stop offset="85.55555555555554%" stop-color="#755378" stop-opacity="1"></stop></linearGradient></defs><defs><linearGradient id="grad1_7" x1="43.8%" y1="100%" x2="100%" y2="0%"><stop offset="14.444444444444446%" stop-color="#826386" stop-opacity="1"></stop><stop offset="85.55555555555554%" stop-color="#8f7394" stop-opacity="1"></stop></linearGradient></defs><defs><linearGradient id="grad2_0" x1="0%" y1="100%" x2="56.3%" y2="0%"><stop offset="14.444444444444446%" stop-color="#380036" stop-opacity="1"></stop><stop offset="85.55555555555554%" stop-color="#380036" stop-opacity="1"></stop></linearGradient></defs><defs><linearGradient id="grad2_1" x1="0%" y1="100%" x2="56.3%" y2="0%"><stop offset="14.444444444444446%" stop-color="#441243" stop-opacity="1"></stop><stop offset="85.55555555555554%" stop-color="#380036" stop-opacity="1"></stop></linearGradient></defs><defs><linearGradient id="grad2_2" x1="0%" y1="100%" x2="56.3%" y2="0%"><stop offset="14.444444444444446%" stop-color="#441243" stop-opacity="1"></stop><stop offset="85.55555555555554%" stop-color="#502350" stop-opacity="1"></stop></linearGradient></defs><defs><linearGradient id="grad2_3" x1="0%" y1="100%" x2="56.3%" y2="0%"><stop offset="14.444444444444446%" stop-color="#5c335d" stop-opacity="1"></stop><stop offset="85.55555555555554%" stop-color="#502350" stop-opacity="1"></stop></linearGradient></defs><defs><linearGradient id="grad2_4" x1="0%" y1="100%" x2="56.3%" y2="0%"><stop offset="14.444444444444446%" stop-color="#5c335d" stop-opacity="1"></stop><stop offset="85.55555555555554%" stop-color="#69436b" stop-opacity="1"></stop></linearGradient></defs><defs><linearGradient id="grad2_5" x1="0%" y1="100%" x2="56.3%" y2="0%"><stop offset="14.444444444444446%" stop-color="#755378" stop-opacity="1"></stop><stop offset="85.55555555555554%" stop-color="#69436b" stop-opacity="1"></stop></linearGradient></defs><defs><linearGradient id="grad2_6" x1="0%" y1="100%" x2="56.3%" y2="0%"><stop offset="14.444444444444446%" stop-color="#755378" stop-opacity="1"></stop><stop offset="85.55555555555554%" stop-color="#826386" stop-opacity="1"></stop></linearGradient></defs><defs><linearGradient id="grad2_7" x1="0%" y1="100%" x2="56.3%" y2="0%"><stop offset="14.444444444444446%" stop-color="#8f7394" stop-opacity="1"></stop><stop offset="85.55555555555554%" stop-color="#826386" stop-opacity="1"></stop></linearGradient></defs><g transform="translate(2560, 1440)"><path d="M-1008 0C-902.3 -129.5 -796.5 -258.9 -725.7 -419C-654.9 -579.1 -619.1 -769.7 -504 -873C-388.9 -976.2 -194.4 -992.1 0 -1008L0 0Z" fill="#886b8d"></path><path d="M-882 0C-789.5 -113.3 -696.9 -226.6 -635 -366.6C-573.1 -506.7 -541.7 -673.5 -441 -763.8C-340.3 -854.2 -170.1 -868.1 0 -882L0 0Z" fill="#7c5b7f"></path><path d="M-756 0C-676.7 -97.1 -597.4 -194.2 -544.3 -314.3C-491.2 -434.3 -464.3 -577.3 -378 -654.7C-291.7 -732.2 -145.8 -744.1 0 -756L0 0Z" fill="#6f4b72"></path><path d="M-630 0C-563.9 -80.9 -497.8 -161.8 -453.6 -261.9C-409.3 -361.9 -387 -481.1 -315 -545.6C-243 -610.1 -121.5 -620.1 0 -630L0 0Z" fill="#623b64"></path><path d="M-504 0C-451.1 -64.7 -398.3 -129.5 -362.9 -209.5C-327.5 -289.5 -309.6 -384.8 -252 -436.5C-194.4 -488.1 -97.2 -496.1 0 -504L0 0Z" fill="#562b57"></path><path d="M-378 0C-338.3 -48.6 -298.7 -97.1 -272.1 -157.1C-245.6 -217.1 -232.2 -288.6 -189 -327.4C-145.8 -366.1 -72.9 -372 0 -378L0 0Z" fill="#4a1b49"></path><path d="M-252 0C-225.6 -32.4 -199.1 -64.7 -181.4 -104.8C-163.7 -144.8 -154.8 -192.4 -126 -218.2C-97.2 -244.1 -48.6 -248 0 -252L0 0Z" fill="#3e093c"></path><path d="M-126 0C-112.8 -16.2 -99.6 -32.4 -90.7 -52.4C-81.9 -72.4 -77.4 -96.2 -63 -109.1C-48.6 -122 -24.3 -124 0 -126L0 0Z" fill="#380036"></path></g><g transform="translate(0, 0)"><path d="M1008 0C957.7 161.5 907.4 322.9 829.7 479C751.9 635.1 646.8 785.7 504 873C361.2 960.2 180.6 984.1 0 1008L0 0Z" fill="#886b8d"></path><path d="M882 0C838 141.3 793.9 282.6 725.9 419.1C657.9 555.7 566 687.5 441 763.8C316 840.2 158 861.1 0 882L0 0Z" fill="#7c5b7f"></path><path d="M756 0C718.3 121.1 680.5 242.2 622.2 359.2C564 476.3 485.1 589.3 378 654.7C270.9 720.2 135.4 738.1 0 756L0 0Z" fill="#6f4b72"></path><path d="M630 0C598.6 100.9 567.1 201.8 518.5 299.4C470 396.9 404.3 491.1 315 545.6C225.7 600.1 112.9 615.1 0 630L0 0Z" fill="#623b64"></path><path d="M504 0C478.8 80.7 453.7 161.5 414.8 239.5C376 317.5 323.4 392.8 252 436.5C180.6 480.1 90.3 492.1 0 504L0 0Z" fill="#562b57"></path><path d="M378 0C359.1 60.6 340.3 121.1 311.1 179.6C282 238.1 242.6 294.6 189 327.4C135.4 360.1 67.7 369 0 378L0 0Z" fill="#4a1b49"></path><path d="M252 0C239.4 40.4 226.8 80.7 207.4 119.7C188 158.8 161.7 196.4 126 218.2C90.3 240.1 45.1 246 0 252L0 0Z" fill="#3e093c"></path><path d="M126 0C119.7 20.2 113.4 40.4 103.7 59.9C94 79.4 80.9 98.2 63 109.1C45.1 120 22.6 123 0 126L0 0Z" fill="#380036"></path></g></svg>